<svg xmlns="http://www.w3.org/2000/svg" xmlns:xlink="http://www.w3.org/1999/xlink" width="1280" zoomAndPan="magnify" viewBox="0 0 960 540.000001" height="720" preserveAspectRatio="xMidYMid meet" version="1.2"><defs><clipPath id="bd47380f98"><path d="M 0.886719 0 L 959.113281 0 L 959.113281 539 L 0.886719 539 Z M 0.886719 0 "/></clipPath><clipPath id="3f1df537c4"><path d="M 471 161.699219 L 549 161.699219 L 549 216 L 471 216 Z M 471 161.699219 "/></clipPath></defs><g id="5c13242d74"><g clip-rule="nonzero" clip-path="url(#bd47380f98)"><path style=" stroke:none;fill-rule:nonzero;fill:#ffffff;fill-opacity:1;" d="M 0.886719 0 L 959.113281 0 L 959.113281 539 L 0.886719 539 Z M 0.886719 0 "/><path style=" stroke:none;fill-rule:nonzero;fill:#ffffff;fill-opacity:1;" d="M 0.886719 0 L 959.113281 0 L 959.113281 539 L 0.886719 539 Z M 0.886719 0 "/></g><path style=" stroke:none;fill-rule:nonzero;fill:#000000;fill-opacity:1;" d="M 483.246094 349.226562 C 483.246094 349.226562 493.25 352.433594 499.03125 352.980469 C 504.808594 353.527344 508.320312 356.347656 508.355469 361.914062 C 508.390625 367.476562 478.394531 363.8125 478.394531 363.8125 Z M 499.804688 236.101562 C 499.804688 236.101562 499.132812 234.6875 499.320312 233.742188 C 499.429688 233.171875 501.027344 232.707031 504.078125 232.574219 C 507.132812 232.433594 520.171875 232.128906 534.042969 237.75 C 547.910156 243.367188 547.550781 248.695312 547.550781 248.695312 C 547.550781 248.695312 545.804688 255.117188 533.445312 254.210938 C 523.8125 253.503906 506.976562 248.042969 499.804688 236.101562 Z M 499.804688 236.101562 "/><path style=" stroke:none;fill-rule:nonzero;fill:#cc8e5a;fill-opacity:1;" d="M 498.050781 187.726562 C 498.050781 187.726562 499.855469 187.574219 506.425781 183.523438 C 512.992188 179.472656 516.105469 176.300781 522.769531 176.84375 C 529.4375 177.382812 530.648438 179.960938 535.4375 173.910156 C 540.226562 167.859375 539.257812 162.988281 544.496094 164.394531 C 547.34375 165.164062 548.777344 167.808594 549.511719 171.125 C 550.128906 173.898438 549.917969 178.214844 549.917969 178.214844 C 549.917969 178.214844 553 180.351562 551.136719 184.664062 C 549.277344 188.980469 545.960938 192.941406 542.964844 198.480469 C 539.003906 205.816406 535.871094 208.34375 536.3125 215.800781 C 536.757812 223.261719 537.734375 228.421875 539.402344 239.03125 C 541.070312 249.640625 541.707031 252.21875 544.480469 260.527344 C 547.257812 268.835938 551.234375 286.035156 549.152344 297.234375 C 547.855469 304.230469 543.734375 307.808594 543.347656 309.960938 C 542.957031 312.113281 543.195312 313.1875 541.820312 320.085938 C 540.449219 326.976562 536.128906 338.1875 535.117188 341.851562 C 534.113281 345.515625 533.828125 352.621094 533.878906 355.203125 C 533.933594 357.785156 534.65625 359.398438 536.460938 361.003906 C 538.628906 362.929688 539.925781 364.640625 540.277344 366.210938 C 540.5 367.199219 539.355469 368.089844 539.355469 368.089844 C 539.355469 368.089844 539.828125 369.808594 537.789062 371.039062 C 536.640625 371.734375 534.859375 370.910156 534.859375 370.910156 C 534.859375 370.910156 534.011719 371.992188 531.84375 372 C 529.675781 372.011719 525.484375 368.589844 524.4375 367.085938 C 522.796875 364.726562 522.769531 356.476562 523.789062 349.871094 C 524.808594 343.269531 524.976562 323.824219 524.976562 323.824219 C 524.976562 323.824219 520.992188 326.929688 516.402344 328.675781 C 511.8125 330.417969 509.070312 330.792969 509.070312 330.792969 C 509.070312 330.792969 508.984375 347.363281 509.289062 351.664062 C 509.597656 355.96875 510.28125 360.988281 511.71875 363.921875 C 513.152344 366.855469 515.746094 369.929688 514.925781 372.082031 C 514.101562 374.242188 513.21875 373.382812 513.21875 373.382812 C 513.21875 373.382812 512.382812 375.109375 510.660156 375.546875 C 508.933594 375.988281 507.609375 374.917969 507.609375 374.917969 C 507.609375 374.917969 506.328125 376.003906 505.023438 375.792969 C 503.71875 375.582031 502.15625 373.652344 500.816406 371.722656 C 499.472656 369.792969 498.324219 366.570312 498.050781 363.988281 C 497.78125 361.40625 497.496094 358.179688 497.4375 355.382812 C 497.378906 352.585938 496.144531 345.488281 496.144531 345.488281 C 496.144531 345.488281 493.425781 350.238281 490.441406 352.835938 C 487.460938 355.429688 484.640625 358.960938 484.640625 358.960938 C 484.640625 358.960938 491.46875 359.644531 492.773438 360.644531 C 495.199219 362.496094 498.304688 369.152344 494.273438 370.035156 C 492.28125 370.46875 489.308594 371.132812 484.527344 370.726562 C 479.746094 370.320312 473.980469 368.203125 467.976562 367.796875 C 456.101562 366.992188 451.554688 367.519531 448.640625 366.382812 C 445.722656 365.25 444.621094 361.023438 444.621094 361.023438 C 444.621094 361.023438 428.839844 366.984375 419.175781 361.292969 C 409.511719 355.601562 407.167969 340.40625 409.359375 334.652344 C 411.554688 328.902344 414.453125 329.175781 415.117188 333.191406 C 415.777344 337.203125 416.40625 346.527344 422.28125 350.804688 C 428.15625 355.078125 434.183594 352.898438 437.636719 352.019531 C 441.089844 351.140625 441.863281 346.546875 441.863281 346.546875 C 441.863281 346.546875 437.933594 324.757812 445.734375 310.371094 C 453.53125 295.984375 460.164062 295.09375 467.503906 286.449219 C 474.84375 277.804688 487.925781 267.121094 489.589844 263.667969 C 491.253906 260.21875 490.582031 255.917969 494.25 251.308594 C 497.910156 246.699219 500.820312 247.546875 501.886719 243.234375 C 502.953125 238.925781 502.488281 233.835938 502.164062 228.8125 C 501.84375 223.792969 500.644531 218.273438 498.371094 213.335938 C 496.097656 208.398438 495.199219 210.410156 490.113281 202.402344 C 485.027344 194.390625 481.472656 186.949219 479.902344 180.929688 C 478.332031 174.90625 492.566406 184.738281 498.050781 187.726562 Z M 498.050781 187.726562 "/><g clip-rule="nonzero" clip-path="url(#3f1df537c4)"><path style=" stroke:none;fill-rule:nonzero;fill:#875c4f;fill-opacity:1;" d="M 506.292969 190.984375 C 502.761719 188.132812 499.953125 188.863281 494.960938 185.15625 C 489.964844 181.449219 481.101562 175.898438 478.195312 175.339844 C 475.292969 174.78125 469.125 173.875 472.738281 180.746094 C 476.355469 187.617188 481.449219 192.539062 484.398438 198.769531 C 487.347656 204.992188 489.320312 209.433594 495.183594 213.136719 C 499.375 215.777344 505.804688 216.09375 507.910156 213.070312 C 510.015625 210.046875 509.261719 205.101562 508.503906 199.941406 C 507.746094 194.777344 507.253906 191.761719 506.292969 190.984375 Z M 538.832031 166.863281 C 538.832031 166.863281 540.460938 161.6875 543.285156 161.890625 C 546.109375 162.09375 548.59375 166.8125 548.195312 168.539062 C 547.796875 170.261719 545.414062 171.003906 543.902344 170.710938 C 540.636719 170.082031 538.453125 169.445312 538.832031 166.863281 Z M 538.832031 166.863281 "/></g><path style=" stroke:none;fill-rule:nonzero;fill:#fae4cc;fill-opacity:1;" d="M 495.621094 343.128906 C 496.816406 346.074219 496.417969 348.070312 496.417969 348.070312 C 496.417969 348.070312 493.683594 352.171875 491.136719 354.984375 C 488.59375 357.792969 485.578125 358.882812 485.578125 358.882812 L 477.941406 356.769531 C 477.941406 356.769531 482.015625 354.382812 482.589844 350.71875 C 483.164062 347.058594 483.769531 340.238281 481.386719 334.808594 C 481.386719 334.808594 487.566406 329.390625 490.503906 326.144531 C 490.503906 326.144531 494.425781 340.1875 495.621094 343.128906 Z M 545.355469 271.210938 C 544.8125 266.046875 544.039062 260.242188 542.585938 252.929688 C 541.132812 245.621094 537.222656 235.09375 536.644531 228.210938 C 536.070312 221.328125 532.25 225.433594 530.5625 227.8125 C 528.878906 230.1875 526.996094 233.636719 524.300781 239.464844 C 521.601562 245.289062 516.199219 256.71875 516.34375 263.605469 C 516.488281 270.492188 517.984375 279.738281 516.542969 283.40625 C 515.101562 287.070312 509.507812 289.464844 510.773438 298.070312 C 512.039062 306.671875 508.855469 330.789062 508.855469 330.789062 C 508.855469 330.789062 520.175781 332.671875 532.117188 312.382812 C 537.410156 303.382812 538.398438 291.261719 538.398438 291.261719 C 538.398438 291.261719 540.679688 296.628906 542.355469 293.824219 C 544.035156 291.015625 542.722656 280.046875 542.722656 280.046875 C 542.722656 280.046875 545.191406 284.125 546.023438 282.398438 C 546.855469 280.671875 545.898438 276.375 545.355469 271.210938 Z M 508.71875 199.9375 C 507.980469 195.636719 507.480469 194.824219 503.390625 194.152344 C 499.300781 193.484375 496.878906 193.980469 492.023438 189.90625 C 487.167969 185.832031 488.980469 189.707031 491.921875 195.503906 C 494.863281 201.296875 501.238281 205.355469 504.949219 206.414062 C 508.660156 207.472656 509.460938 204.238281 508.71875 199.9375 Z M 508.71875 199.9375 "/><path style=" stroke:none;fill-rule:nonzero;fill:#fa7981;fill-opacity:1;" d="M 499.292969 234.167969 L 498.777344 243.125 C 498.777344 243.125 505.496094 252.199219 521.382812 256.328125 C 541.945312 261.671875 547.8125 255.472656 547.8125 255.472656 L 547.550781 248.574219 C 547.550781 248.574219 543.078125 253.921875 524.511719 248.566406 C 511.925781 244.9375 509.828125 243.316406 505.769531 240.1875 C 501.707031 237.0625 499.292969 234.167969 499.292969 234.167969 Z M 499.292969 234.167969 "/><path style=" stroke:none;fill-rule:nonzero;fill:#000000;fill-opacity:1;" d="M 505.839844 192.992188 C 505.113281 192.820312 504.566406 192.699219 503.804688 192.6875 C 502.5625 192.675781 501.335938 192.511719 500.113281 192.324219 C 499.085938 192.167969 498.128906 191.835938 497.160156 191.472656 C 496.703125 191.300781 496.148438 191.175781 495.75 190.882812 C 495.464844 190.671875 496.308594 190.539062 496.46875 190.472656 C 496.769531 190.347656 496.871094 189.957031 496.5625 189.765625 C 495.792969 189.289062 494.789062 189.507812 493.945312 189.128906 C 492.941406 188.679688 491.929688 188.339844 490.960938 187.804688 C 488.925781 186.675781 487.015625 184.90625 485.757812 182.949219 C 485.617188 182.734375 485.316406 182.921875 485.417969 183.148438 C 486.371094 185.230469 487.867188 186.65625 489.730469 187.960938 C 490.636719 188.597656 491.632812 189.082031 492.65625 189.496094 C 493.234375 189.730469 493.835938 189.957031 494.4375 190.136719 C 494.972656 190.292969 495.691406 190.136719 496.171875 190.433594 C 496.199219 190.199219 496.230469 189.960938 496.261719 189.726562 C 495.75 189.933594 494.675781 189.976562 494.675781 190.75 C 494.675781 191.757812 496.617188 192.136719 497.273438 192.382812 C 500.042969 193.425781 502.882812 193.300781 505.757812 193.585938 C 506.101562 193.617188 506.167969 193.070312 505.839844 192.992188 Z M 543.101562 169.082031 C 543.410156 167.753906 544.878906 166.308594 546.289062 167.003906 C 546.914062 167.3125 547.457031 167.96875 548.136719 168.132812 C 548.269531 168.164062 548.386719 168.050781 548.351562 167.917969 C 548.121094 166.976562 546.65625 166.191406 545.792969 166.027344 C 544.222656 165.722656 542.710938 167.550781 542.460938 168.910156 C 542.386719 169.320312 543.003906 169.503906 543.101562 169.082031 Z M 531.449219 198.0625 C 532.777344 198.195312 534.109375 198.53125 535.375 197.917969 C 536.605469 197.316406 537.503906 196.296875 538.316406 195.214844 C 539.339844 193.855469 540.1875 192.363281 541.132812 190.949219 C 542.167969 189.386719 543.367188 187.933594 544.511719 186.453125 C 546.207031 184.253906 547.886719 182.011719 549.441406 179.710938 C 550.820312 177.675781 550.660156 175.265625 549.980469 173.003906 C 549.925781 172.8125 549.617188 172.839844 549.625 173.050781 C 549.753906 175.3125 549.949219 177.472656 548.589844 179.410156 C 547.15625 181.457031 545.695312 183.492188 544.175781 185.476562 C 542.226562 188.023438 540.367188 190.5625 538.632812 193.257812 C 537.867188 194.445312 537.0625 195.621094 536 196.558594 C 534.644531 197.753906 533.097656 197.503906 531.449219 197.421875 C 531.03125 197.402344 531.046875 198.023438 531.449219 198.0625 Z M 525.667969 180.488281 C 524.570312 179.847656 521.328125 180.507812 521.800781 182.226562 C 522.269531 183.945312 526.429688 185.863281 527.261719 184.136719 C 528.09375 182.410156 526.765625 181.125 525.667969 180.488281 Z M 519.234375 177.804688 C 516.460938 178.371094 516.351562 182.066406 518.207031 183.683594 C 518.414062 183.867188 518.675781 183.597656 518.503906 183.386719 C 517.359375 181.964844 517.347656 179.035156 519.421875 178.496094 C 519.875 178.378906 519.679688 177.714844 519.234375 177.804688 Z M 482.480469 180.183594 C 483.355469 181.3125 484.285156 182.398438 485.179688 183.511719 C 486.195312 184.78125 486.984375 186.214844 487.8125 187.605469 C 489.445312 190.34375 490.8125 193.226562 492.488281 195.9375 C 495.519531 200.851562 499.597656 205.34375 505.539062 206.398438 C 505.761719 206.4375 505.941406 206.113281 505.703125 206.011719 C 503.011719 204.871094 500.355469 203.824219 498.167969 201.8125 C 496.039062 199.855469 494.3125 197.347656 492.808594 194.894531 C 491.207031 192.285156 489.867188 189.523438 488.285156 186.90625 C 487.535156 185.667969 486.78125 184.433594 485.890625 183.292969 C 484.953125 182.097656 483.878906 181.015625 482.886719 179.867188 C 482.695312 179.648438 482.300781 179.949219 482.480469 180.183594 Z M 502.8125 247.796875 C 504.128906 248.769531 505.515625 249.921875 507.046875 250.539062 C 508.457031 251.113281 509.5 248.820312 509.839844 247.894531 C 510.300781 246.625 511.179688 244.730469 510.566406 243.394531 C 509.875 241.894531 507.753906 240.957031 506.476562 240.058594 C 505.566406 239.417969 503.800781 237.601562 502.527344 238.019531 C 501.464844 238.371094 501 240.460938 500.699219 241.386719 C 500.347656 242.46875 500.0625 243.808594 500.253906 244.941406 C 500.480469 246.261719 501.707031 247.179688 502.8125 247.796875 C 503.496094 248.183594 504.109375 247.132812 503.425781 246.75 C 502.671875 246.328125 501.75 245.664062 501.515625 244.800781 C 501.273438 243.90625 501.644531 242.742188 501.878906 241.875 C 502.121094 240.992188 502.5 240.175781 502.882812 239.347656 C 503.027344 239.039062 502.71875 239.230469 502.996094 239.304688 C 503.3125 239.386719 503.613281 239.601562 503.890625 239.769531 C 504.5 240.136719 505.070312 240.582031 505.640625 241.011719 C 506.71875 241.824219 507.921875 242.453125 508.917969 243.375 C 509.453125 243.871094 509.554688 244.1875 509.425781 244.890625 C 509.308594 245.535156 509.089844 246.167969 508.890625 246.789062 C 508.660156 247.492188 508.429688 248.167969 508.027344 248.792969 C 507.699219 249.304688 507.476562 249.417969 506.992188 249.148438 C 505.746094 248.457031 504.574219 247.59375 503.425781 246.75 C 502.789062 246.285156 502.191406 247.339844 502.8125 247.796875 Z M 500.582031 240.492188 C 500.796875 241.320312 501.292969 242.0625 501.851562 242.707031 C 502.382812 243.328125 503.09375 244.277344 503.859375 244.601562 C 504.433594 244.847656 505.167969 244.128906 504.589844 243.65625 C 503.367188 242.652344 502.199219 241.507812 501.308594 240.1875 C 501.058594 239.820312 500.460938 240.042969 500.582031 240.492188 Z M 515.328125 249.695312 C 515.339844 250.167969 514.957031 250.558594 514.480469 250.558594 C 514 250.5625 513.601562 250.179688 513.59375 249.703125 C 513.582031 249.226562 513.964844 248.839844 514.441406 248.839844 C 514.921875 248.835938 515.320312 249.21875 515.328125 249.695312 Z M 521.890625 252.242188 C 521.898438 252.71875 521.519531 253.105469 521.039062 253.109375 C 520.5625 253.113281 520.164062 252.726562 520.15625 252.253906 C 520.144531 251.777344 520.527344 251.390625 521.003906 251.386719 C 521.484375 251.386719 521.878906 251.769531 521.890625 252.242188 Z M 528.867188 253.929688 C 528.878906 254.40625 528.496094 254.792969 528.019531 254.796875 C 527.539062 254.796875 527.140625 254.414062 527.132812 253.941406 C 527.121094 253.464844 527.503906 253.078125 527.980469 253.074219 C 528.460938 253.074219 528.859375 253.457031 528.867188 253.929688 Z M 536.695312 254.753906 C 536.703125 255.230469 536.324219 255.617188 535.84375 255.621094 C 535.367188 255.621094 534.96875 255.238281 534.960938 254.761719 C 534.949219 254.289062 535.332031 253.898438 535.808594 253.898438 C 536.289062 253.894531 536.683594 254.277344 536.695312 254.753906 Z M 544.265625 266.695312 C 544.269531 267.746094 544.3125 268.777344 544.507812 269.8125 C 544.71875 270.925781 545.113281 272.011719 545.363281 273.117188 C 545.761719 274.890625 546.128906 276.683594 546.398438 278.480469 C 546.554688 279.527344 546.632812 280.582031 546.621094 281.640625 C 546.617188 282.046875 546.636719 283.949219 546.015625 283.996094 C 545.367188 284.042969 544.578125 282.859375 544.261719 282.390625 C 544.007812 282.019531 543.402344 282.148438 543.394531 282.625 C 543.375 284.078125 543.359375 285.53125 543.355469 286.984375 C 543.347656 289.136719 543.546875 291.378906 543.246094 293.515625 C 543.128906 294.335938 542.882812 296.316406 541.933594 296.636719 C 541.445312 296.804688 540.785156 295.195312 540.644531 294.898438 C 540.234375 294.035156 539.886719 293.144531 539.5625 292.242188 C 539.410156 291.824219 539.121094 291.421875 539 290.996094 C 538.9375 290.777344 538.59375 290.871094 538.660156 291.089844 C 538.8125 291.632812 538.832031 292.214844 539 292.761719 C 539.324219 293.8125 539.695312 294.855469 540.1875 295.839844 C 540.496094 296.453125 540.941406 297.277344 541.664062 297.460938 C 542.558594 297.691406 543.1875 296.6875 543.476562 296.011719 C 544.484375 293.613281 544.257812 290.96875 544.273438 288.429688 C 544.285156 286.496094 544.304688 284.558594 544.324219 282.625 C 544.035156 282.703125 543.75 282.78125 543.460938 282.859375 C 544.007812 283.65625 544.71875 284.523438 545.65625 284.851562 C 547.359375 285.449219 547.488281 282.59375 547.515625 281.640625 C 547.582031 279.277344 547.039062 276.886719 546.53125 274.59375 C 545.945312 271.953125 545.0625 269.414062 544.957031 266.695312 C 544.9375 266.253906 544.261719 266.25 544.265625 266.695312 Z M 534.152344 219.664062 C 533.5625 218.402344 533.554688 216.816406 533.621094 215.453125 C 533.664062 214.554688 534.160156 213.746094 534.53125 212.945312 C 534.964844 211.996094 535.425781 211.058594 535.921875 210.140625 C 537.273438 207.640625 539.179688 205.445312 540.753906 203.078125 C 543.730469 198.605469 546.710938 193.992188 548.789062 189.027344 C 548.863281 188.847656 548.5625 188.722656 548.476562 188.894531 C 547.351562 191.160156 545.910156 193.308594 544.605469 195.472656 C 542.980469 198.167969 541.308594 200.835938 539.550781 203.445312 C 537.722656 206.152344 535.710938 208.628906 534.28125 211.59375 C 533.605469 212.992188 532.855469 214.308594 532.847656 215.875 C 532.839844 217.234375 532.972656 218.761719 533.582031 219.996094 C 533.773438 220.382812 534.328125 220.046875 534.152344 219.664062 Z M 535.96875 214.867188 C 535.679688 217.292969 536.0625 219.769531 536.421875 222.164062 C 536.773438 224.539062 537.207031 226.898438 537.554688 229.273438 C 537.921875 231.78125 538.273438 234.289062 538.703125 236.785156 C 538.929688 238.09375 539.199219 239.394531 539.429688 240.699219 C 539.597656 241.625 539.710938 242.8125 540.351562 243.554688 C 540.429688 243.640625 540.59375 243.550781 540.550781 243.441406 C 540.164062 242.4375 540.101562 241.257812 539.917969 240.207031 C 539.710938 239.015625 539.46875 237.828125 539.261719 236.632812 C 538.851562 234.230469 538.511719 231.8125 538.148438 229.402344 C 537.808594 227.132812 537.414062 224.875 537.035156 222.613281 C 536.609375 220.078125 536.132812 217.449219 536.328125 214.867188 C 536.347656 214.632812 535.996094 214.644531 535.96875 214.867188 Z M 509.910156 329.785156 C 512.539062 329.863281 515.261719 328.9375 517.6875 327.984375 C 520.484375 326.878906 523.078125 325.324219 525.4375 323.472656 C 529.355469 320.398438 532.601562 316.394531 535.351562 312.269531 C 535.496094 312.050781 535.160156 311.789062 534.984375 311.988281 C 531.914062 315.449219 529.179688 319.140625 525.664062 322.1875 C 523.339844 324.199219 520.683594 325.777344 517.878906 327.007812 C 515.421875 328.085938 512.585938 329.007812 509.910156 329.207031 C 509.542969 329.230469 509.535156 329.773438 509.910156 329.785156 Z M 527.058594 369.234375 C 528.425781 370.566406 530.144531 372.128906 532.132812 372.320312 C 533.902344 372.492188 535.199219 370.851562 534.871094 369.140625 C 534.664062 369.261719 534.457031 369.382812 534.246094 369.503906 C 535.363281 370.890625 537.460938 372.800781 539.238281 371.238281 C 540.660156 369.992188 540.363281 367.636719 538.546875 366.9375 C 538.246094 366.820312 538 367.160156 538.058594 367.425781 C 538.191406 368.050781 539.082031 369.121094 539.832031 368.914062 C 540.714844 368.671875 540.699219 367.214844 540.648438 366.527344 C 540.5625 365.34375 539.859375 364.226562 539.171875 363.296875 C 538.761719 362.742188 538.253906 362.257812 537.746094 361.789062 C 537.234375 361.316406 536.789062 360.769531 536.207031 360.382812 C 536.023438 360.261719 535.789062 360.5 535.90625 360.6875 C 536.738281 362.003906 538 362.917969 538.855469 364.214844 C 539.285156 364.867188 539.664062 365.5625 539.832031 366.328125 C 539.925781 366.746094 539.898438 367.210938 539.835938 367.632812 C 539.695312 368.585938 538.921875 367.660156 538.828125 367.214844 C 538.664062 367.378906 538.5 367.542969 538.335938 367.703125 C 540.015625 368.34375 539.503906 370.859375 537.792969 371.042969 C 536.570312 371.175781 535.464844 369.816406 534.777344 368.976562 C 534.519531 368.664062 534.085938 369.007812 534.152344 369.339844 C 534.3125 370.132812 533.949219 370.75 533.425781 371.3125 C 532.792969 371.992188 531.511719 371.542969 530.820312 371.222656 C 529.558594 370.644531 528.441406 369.804688 527.398438 368.894531 C 527.167969 368.695312 526.835938 369.015625 527.058594 369.234375 Z M 524.253906 323.828125 C 524.207031 327.636719 524.675781 331.425781 524.351562 335.238281 C 524.144531 337.671875 524.019531 340.113281 523.917969 342.550781 C 523.832031 344.59375 523.585938 346.753906 523.777344 348.792969 C 523.796875 349.011719 524.125 349.089844 524.183594 348.847656 C 524.632812 346.929688 524.570312 344.792969 524.691406 342.832031 C 524.847656 340.300781 524.964844 337.765625 525.167969 335.238281 C 525.363281 332.792969 525.300781 330.335938 525.195312 327.890625 C 525.132812 326.503906 525.070312 325.117188 524.828125 323.75 C 524.769531 323.417969 524.257812 323.507812 524.253906 323.828125 Z M 502.171875 373.4375 C 502.9375 374.574219 506.101562 377.292969 507.132812 375.210938 C 507.546875 374.378906 507.859375 373.511719 507.941406 372.582031 C 507.972656 372.199219 507.527344 371.273438 507.023438 371.777344 C 506.304688 372.492188 507.0625 374.117188 507.453125 374.824219 C 508.148438 376.078125 509.324219 376.425781 510.675781 376.167969 C 511.78125 375.960938 512.660156 375.136719 512.800781 374.027344 C 512.960938 372.738281 512.757812 371.933594 511.835938 371.015625 C 511.574219 370.75 511.226562 371.027344 511.269531 371.34375 C 511.390625 372.183594 512.183594 372.667969 512.933594 372.902344 C 513.792969 373.171875 514.496094 372.492188 514.863281 371.789062 C 515.921875 369.769531 514.867188 366.957031 513.101562 365.726562 C 512.984375 365.644531 512.824219 365.804688 512.90625 365.921875 C 513.8125 367.277344 514.527344 368.378906 514.539062 370.085938 C 514.542969 370.871094 514.339844 371.722656 513.664062 372.195312 C 513.042969 372.632812 512.003906 371.753906 511.925781 371.160156 C 511.734375 371.273438 511.546875 371.382812 511.359375 371.492188 C 511.863281 371.996094 512.179688 372.386719 512.1875 373.125 C 512.199219 374.078125 512.125 374.75 511.242188 375.304688 C 509.105469 376.65625 507.714844 374.59375 507.292969 372.78125 C 507.070312 371.820312 507.453125 372.1875 507.445312 372.582031 C 507.4375 372.886719 507.300781 373.210938 507.203125 373.5 C 507.027344 374.027344 506.8125 374.542969 506.566406 375.039062 C 505.910156 376.363281 503.023438 373.820312 502.570312 373.203125 C 502.394531 372.972656 502 373.1875 502.171875 373.4375 Z M 490.535156 312.675781 C 489.410156 315.03125 489.515625 317.78125 489.613281 320.328125 C 489.738281 323.371094 490.355469 326.296875 490.964844 329.269531 C 491.648438 332.625 492.585938 335.925781 493.546875 339.207031 C 494.007812 340.777344 494.476562 342.347656 494.945312 343.917969 C 495.410156 345.480469 495.742188 347.148438 496.386719 348.648438 C 496.5 348.914062 496.96875 348.785156 496.9375 348.5 C 496.792969 347.121094 496.3125 345.753906 495.9375 344.425781 C 495.492188 342.851562 495.023438 341.285156 494.5625 339.714844 C 493.625 336.554688 492.722656 333.386719 491.996094 330.171875 C 491.339844 327.246094 490.722656 324.328125 490.449219 321.339844 C 490.199219 318.628906 489.980469 315.449219 491.003906 312.871094 C 491.109375 312.601562 490.660156 312.414062 490.535156 312.675781 Z M 510.183594 310.253906 C 509.734375 311.808594 509.722656 313.394531 509.617188 314.996094 C 509.492188 316.890625 509.382812 318.78125 509.316406 320.679688 C 509.179688 324.726562 509.113281 328.777344 509.054688 332.824219 C 508.933594 340.800781 508.738281 348.871094 509.378906 356.828125 C 509.394531 357 509.640625 357.003906 509.648438 356.828125 C 509.957031 349.097656 509.714844 341.332031 509.835938 333.59375 C 509.898438 329.683594 509.945312 325.773438 510.046875 321.863281 C 510.097656 319.894531 510.175781 317.925781 510.261719 315.960938 C 510.339844 314.128906 510.347656 312.207031 510.777344 310.417969 C 510.871094 310.03125 510.292969 309.871094 510.183594 310.253906 Z M 468.988281 318.5 C 471.421875 320.042969 473.453125 322.453125 475.179688 324.726562 C 476.933594 327.03125 478.566406 329.425781 479.882812 332.007812 C 482.164062 336.476562 483.78125 341.695312 482.933594 346.757812 C 482.585938 348.835938 481.652344 350.804688 480.789062 352.707031 C 480.007812 354.433594 479.105469 355.582031 477.449219 356.550781 C 474.125 358.492188 469.957031 359.085938 466.175781 359.242188 C 464.175781 359.324219 461.992188 359.292969 460.046875 358.785156 C 459.796875 358.722656 459.613281 359.105469 459.863281 359.210938 C 462.886719 360.496094 466.496094 360.269531 469.675781 359.847656 C 473.113281 359.390625 476.875 358.472656 479.5625 356.15625 C 481.027344 354.894531 481.660156 352.992188 482.382812 351.261719 C 483.074219 349.605469 483.671875 347.941406 483.878906 346.152344 C 484.457031 341.171875 482.882812 336.332031 480.722656 331.921875 C 479.347656 329.109375 477.507812 326.550781 475.605469 324.078125 C 473.855469 321.800781 471.746094 319.519531 469.234375 318.078125 C 468.960938 317.921875 468.722656 318.332031 468.988281 318.5 Z M 477.425781 357.765625 C 481.214844 358.964844 485.117188 359.355469 489.0625 359.648438 C 492.910156 359.933594 497.304688 364.800781 495.640625 368.660156 C 495.578125 368.808594 495.738281 368.949219 495.867188 368.835938 C 497.359375 367.527344 496.464844 365.070312 495.757812 363.605469 C 494.90625 361.84375 493.121094 360.375 491.398438 359.523438 C 489.726562 358.699219 487.703125 358.832031 485.886719 358.664062 C 483.082031 358.40625 480.308594 357.917969 477.617188 357.070312 C 477.171875 356.929688 476.984375 357.625 477.425781 357.765625 Z M 485.640625 358.703125 C 487.007812 358.390625 488.140625 357.507812 489.265625 356.714844 C 490.140625 356.09375 491 355.457031 491.835938 354.78125 C 493.941406 353.082031 496.304688 350.902344 496.785156 348.109375 C 496.816406 347.914062 496.542969 347.832031 496.484375 348.027344 C 495.699219 350.527344 493.503906 352.507812 491.550781 354.144531 C 490.742188 354.820312 489.886719 355.445312 489.035156 356.070312 C 487.941406 356.875 486.835938 357.832031 485.5 358.203125 C 485.179688 358.292969 485.316406 358.777344 485.640625 358.703125 Z M 489.152344 265.03125 C 487.285156 269.6875 486.503906 274.710938 485.53125 279.605469 C 485.324219 280.640625 485.441406 282.652344 487.023438 282.285156 C 488.253906 281.996094 488.558594 280.246094 489.433594 279.449219 C 489.234375 279.449219 489.03125 279.449219 488.832031 279.449219 C 489.164062 279.847656 488.636719 281.773438 488.570312 282.214844 C 488.382812 283.515625 488.222656 284.84375 488.164062 286.15625 C 488.046875 288.90625 487.984375 291.535156 488.878906 294.179688 C 488.949219 294.390625 489.3125 294.375 489.285156 294.132812 C 488.929688 291.054688 488.808594 288.132812 489.0625 285.039062 C 489.171875 283.703125 489.367188 282.359375 489.59375 281.039062 C 489.703125 280.40625 489.960938 279.472656 489.433594 278.960938 C 489.253906 278.789062 489.015625 278.816406 488.832031 278.960938 C 488.097656 279.554688 487.761719 280.578125 487.117188 281.265625 C 486.269531 282.167969 486.261719 280.300781 486.339844 279.828125 C 486.476562 278.992188 486.617188 278.15625 486.769531 277.320312 C 487.511719 273.234375 488.335938 269.113281 489.632812 265.164062 C 489.734375 264.855469 489.265625 264.742188 489.152344 265.03125 Z M 460.921875 293.089844 C 458.042969 294.238281 455.765625 297.0625 453.796875 299.332031 C 451.515625 301.957031 449.371094 304.761719 447.492188 307.6875 C 446.6875 308.945312 446.117188 310.300781 445.550781 311.683594 C 444.367188 314.5625 443.449219 317.550781 442.707031 320.570312 C 441.242188 326.554688 440.5 332.640625 440.601562 338.804688 C 440.6875 343.808594 441.828125 348.972656 443.183594 353.765625 C 443.257812 354.03125 443.628906 353.914062 443.585938 353.65625 C 442.789062 348.539062 441.441406 343.464844 441.414062 338.257812 C 441.382812 331.835938 442.238281 325.546875 443.871094 319.335938 C 444.960938 315.183594 446.300781 310.902344 448.699219 307.300781 C 450.769531 304.191406 453.097656 301.230469 455.585938 298.445312 C 457.148438 296.699219 458.953125 294.585938 461.140625 293.609375 C 461.429688 293.476562 461.21875 292.972656 460.921875 293.089844 Z M 484.222656 363.507812 C 485.078125 363.367188 485.894531 363.257812 486.707031 363.628906 C 487.515625 363.996094 488.15625 364.71875 488.738281 365.363281 C 490.066406 366.835938 491.011719 368.617188 491.964844 370.34375 C 492.054688 370.511719 492.320312 370.398438 492.269531 370.214844 C 491.664062 368 490.351562 366.054688 488.773438 364.40625 C 487.371094 362.9375 486.03125 362.585938 484.082031 363 C 483.746094 363.070312 483.890625 363.5625 484.222656 363.507812 Z M 491.578125 362.324219 C 493.910156 363.777344 494.238281 367.007812 494.726562 369.433594 C 494.765625 369.648438 495.121094 369.601562 495.105469 369.382812 C 494.980469 367.839844 495 366.410156 494.417969 364.941406 C 493.960938 363.773438 493.003906 362.410156 491.863281 361.839844 C 491.539062 361.679688 491.269531 362.132812 491.578125 362.324219 Z M 443.101562 360.640625 C 441.433594 361.078125 439.796875 361.613281 438.113281 361.996094 C 435.34375 362.632812 432.53125 362.933594 429.691406 362.785156 C 425.472656 362.566406 421.289062 361.921875 418.085938 358.953125 C 416.125 357.132812 414.449219 354.761719 413.488281 352.269531 C 413.011719 351.03125 412.296875 348.601562 413.367188 347.449219 C 413.84375 346.929688 414.503906 348.171875 414.667969 348.460938 C 414.941406 348.929688 415.089844 349.488281 415.125 350.027344 C 415.148438 350.367188 415.316406 350.542969 415.015625 350.335938 C 413.699219 349.429688 412.832031 347.515625 412.175781 346.128906 C 410.925781 343.476562 410.195312 340.488281 410.1875 337.558594 C 410.179688 336.035156 410.390625 333.699219 411.464844 332.480469 C 411.667969 332.253906 411.363281 331.957031 411.136719 332.152344 C 410.035156 333.089844 409.652344 334.546875 409.488281 335.925781 C 409.171875 338.582031 409.621094 341.25 410.40625 343.789062 C 411.050781 345.863281 412 347.910156 413.304688 349.65625 C 413.648438 350.113281 414.679688 351.617188 415.453125 351.179688 C 416.699219 350.476562 415.457031 347.996094 414.84375 347.300781 C 414.210938 346.578125 413.269531 346.144531 412.609375 347.117188 C 411.824219 348.269531 412.035156 349.90625 412.320312 351.183594 C 412.867188 353.628906 414.324219 355.804688 415.867188 357.730469 C 417.316406 359.539062 419.089844 361.0625 421.21875 362.011719 C 423.242188 362.910156 425.464844 363.214844 427.648438 363.421875 C 430.761719 363.71875 433.816406 363.625 436.890625 363.046875 C 439.082031 362.632812 441.152344 361.90625 443.261719 361.222656 C 443.628906 361.105469 443.480469 360.539062 443.101562 360.640625 Z M 443.101562 360.640625 "/></g></svg>